<svg xmlns="http://www.w3.org/2000/svg" width="338.451" height="100" viewBox="0 0 338.451 100"><g transform="translate(-136 -375)"><path d="M81.108,0H18.894A18.894,18.894,0,0,0,0,18.894V81.106A18.894,18.894,0,0,0,18.894,100H81.108A18.894,18.894,0,0,0,100,81.106V18.894A18.894,18.894,0,0,0,81.108,0" transform="translate(136 375)" fill="#dd031d"/><path d="M40.2,47.686C23.735,66.317,23.735,76.842,23.735,76.842S15.706,55.179,35,34.153,54.469,6.628,54.469,6.628c.715,14.629,2.192,22.428-14.272,41.058m8.311-4.129S48.4,47.636,36.3,60.811C24.218,73.988,29.24,87.573,29.24,87.573s0-6.6,10.32-18.274c10.3-11.7,9.4-16.566,8.948-25.742" transform="translate(147.888 378.569)" fill="#fff"/><path d="M215.506,33.753h8.238V73.291h-8.238Zm-.641-9.8a4.451,4.451,0,0,1,1.411-3.288,4.554,4.554,0,0,1,3.337-1.4,4.764,4.764,0,0,1,4.682,4.683,4.454,4.454,0,0,1-1.394,3.3,4.543,4.543,0,0,1-3.288,1.378,4.6,4.6,0,0,1-3.337-1.378,4.522,4.522,0,0,1-1.411-3.3M103.319,9.9l28.811,63.392h-8.735l-7.085-15.615H90.419L83.4,73.291H74.737ZM103.3,28.956,93.542,50.728h19.645Zm57.26,9.5q-6.928-5.8-12.517-5.815a13.515,13.515,0,0,0-9.323,3.282A10.551,10.551,0,0,0,135,44.142a9.23,9.23,0,0,0,2.6,6.675c1.742,1.789,4.888,3.577,9.414,5.342,4.549,1.766,6.812,3.757,6.812,5.952a4.069,4.069,0,0,1-1.946,3.282,7.579,7.579,0,0,1-4.528,1.4c-2.512,0-4.888-1.109-7.2-3.349L133.6,66.614q5.368,7.775,13.76,7.763a13.789,13.789,0,0,0,9.574-3.711,11.4,11.4,0,0,0,4.074-8.691,10.284,10.284,0,0,0-2.829-7.265c-1.9-2.015-4.978-3.871-9.279-5.546s-6.451-3.417-6.451-5.2c0-2.489,1.677-3.734,5.069-3.734a8.4,8.4,0,0,1,3.735.792,34.285,34.285,0,0,1,3.734,2.331Zm72.852-4.708V73.291h8.328V51.384a10.16,10.16,0,0,1,2.852-7.355,9.415,9.415,0,0,1,7.062-2.942,20.953,20.953,0,0,1,3.168.475l2.535-8.329a14.905,14.905,0,0,0-3.44-.566,10.56,10.56,0,0,0-6.925,2.174,25.36,25.36,0,0,0-5.431,7.06V33.753Zm64.8,21.388H264.483q1.087,6.076,5,8.894a14.2,14.2,0,0,0,8.508,2.808,14.759,14.759,0,0,0,11.882-5.885l6.089,4.594a22.027,22.027,0,0,1-18.355,8.872,19.849,19.849,0,0,1-14.755-6.043,20.562,20.562,0,0,1-5.951-15,20.182,20.182,0,0,1,6.018-14.552,20.412,20.412,0,0,1,29.308.091q6.076,6.245,5.977,16.226m-32.862-6.677h24.146q-4.039-8.146-11.882-8.146c-5.726,0-9.8,2.715-12.265,8.146m-61.358-9.686a17.194,17.194,0,0,0-13.171-6.111c-6.225,0-11.317,3.011-15.322,9.054V33.776h-8.24V91.85h8.329V65.439a18.436,18.436,0,0,0,6.675,6.654A16.766,16.766,0,0,0,190.7,74.4q7.6,0,13.217-6.223a21.39,21.39,0,0,0,5.589-14.8A20.8,20.8,0,0,0,203.986,38.777ZM190.431,67.045c-6.858,0-12.426-6.223-12.426-13.534s5.568-13.828,12.426-13.828,12.423,6.517,12.423,13.828-5.543,13.534-12.423,13.534" transform="translate(176.243 380.33)"/></g></svg>