<svg xmlns="http://www.w3.org/2000/svg" width="103.806" height="30" viewBox="0 0 103.806 30"><g transform="translate(0 0)"><path d="M33.909,12.812a8.267,8.267,0,0,0-.734-2.967A5.469,5.469,0,0,0,31.142,7.51a6.091,6.091,0,0,0-3.4-.934,7.144,7.144,0,0,0-2.934.667,6.235,6.235,0,0,0-2.234,1.7,6.989,6.989,0,0,0-1.367,2.5,9.969,9.969,0,0,0-.467,3.034,9.071,9.071,0,0,0,1.034,4.268,6.81,6.81,0,0,0,2.634,2.767,7.8,7.8,0,0,0,3.734,1,8.416,8.416,0,0,0,4.368-1.1l1.434-.867-1.034-1.8-.967.6a5.416,5.416,0,0,1-1.5.6,10.941,10.941,0,0,1-1.734.233,3.856,3.856,0,0,1-2.3-.734,4.913,4.913,0,0,1-1.7-1.967,6.475,6.475,0,0,1-.634-2.567h9.969Zm-2.9-.033h-6.9l.167-.834a3.915,3.915,0,0,1,1.234-2.234,3.431,3.431,0,0,1,2.234-.9,3.018,3.018,0,0,1,2.2.834,3.379,3.379,0,0,1,1,2.1Zm17.1,6.568a5.118,5.118,0,0,1-2.834.8,2.888,2.888,0,0,1-.6-.033,4.169,4.169,0,0,1-3.034-1.6,6.354,6.354,0,0,1-1.367-3.6v-.333a.829.829,0,0,0-.033-.267,6.042,6.042,0,0,1,1.167-3.768,4.36,4.36,0,0,1,3.134-1.7c.433-.033.7-.067.867-.067a5.062,5.062,0,0,1,1.967.4l.934.433,1.167-1.9-1.067-.5a5.2,5.2,0,0,0-1.667-.567,11.806,11.806,0,0,0-2-.133,7.968,7.968,0,0,0-3.134.634,8.054,8.054,0,0,0-2.467,1.734,7.413,7.413,0,0,0-1.6,2.6,8.861,8.861,0,0,0-.567,3.134,8.561,8.561,0,0,0,1,4,6.934,6.934,0,0,0,2.634,2.734,8.3,8.3,0,0,0,3.734,1.134,8.878,8.878,0,0,0,2.5-.333,6.78,6.78,0,0,0,1.867-.734l1.1-.7-.967-1.934Zm12.47.567a4.12,4.12,0,0,1-1.3.333,2.16,2.16,0,0,1-1.067-.3,1.6,1.6,0,0,1-.734-1.167,13.584,13.584,0,0,1-.167-2.3V8.944h3.8v-2h-3.8v-4.6l-3.068,1.1v3.5h-2.1v2h2.1V17.18c0,1.9.433,3.3,1.267,4.068a5.594,5.594,0,0,0,5.368.767l1.334-.634-.834-1.834Zm12.1-12.837a3.775,3.775,0,0,0-2-.567h-.033a2.2,2.2,0,0,0-.9.4,4.1,4.1,0,0,0-.8.867l-.7.9V6.91H65.118v15.2h3.168V12.945a4.565,4.565,0,0,1,.567-2.4,1.986,1.986,0,0,1,1.267-1.034,5.683,5.683,0,0,1,1.367.167,2.1,2.1,0,0,1,.767.333l.2.2,1.434-2.034-.067-.133a4.466,4.466,0,0,0-1.134-.967m23.24,11.77-.767.5a5.118,5.118,0,0,1-2.834.8,2.888,2.888,0,0,1-.6-.033,4.169,4.169,0,0,1-3.034-1.6,6.354,6.354,0,0,1-1.367-3.6v-.333a.734.734,0,0,0-.033-.267,6.042,6.042,0,0,1,1.167-3.768,4.36,4.36,0,0,1,3.134-1.7c.433-.033.7-.067.867-.067a5.062,5.062,0,0,1,1.967.4l.934.433,1.167-1.9-1.067-.5a5.2,5.2,0,0,0-1.667-.567,11.806,11.806,0,0,0-2-.133,7.968,7.968,0,0,0-3.134.634,8.054,8.054,0,0,0-2.467,1.734,7.414,7.414,0,0,0-1.6,2.6,8.861,8.861,0,0,0-.567,3.134,8.561,8.561,0,0,0,1,4,6.934,6.934,0,0,0,2.634,2.734,8.3,8.3,0,0,0,3.734,1.134,8.878,8.878,0,0,0,2.5-.333,6.78,6.78,0,0,0,1.867-.734l1.1-.7ZM76.988.308h3.168V3.476H76.988Zm0,6.368h3.168V22.114H76.988Zm-60.05,6.535h0c-.033.033-1.334,1.934-1.967,2.734a18.733,18.733,0,0,1-3.7,3.434,6.772,6.772,0,0,0-.867.734,3.992,3.992,0,0,0-.4.467,10.322,10.322,0,0,0-.6.867,7.758,7.758,0,0,1,.367-2.734A11.486,11.486,0,0,1,13.1,14.079a18.348,18.348,0,0,1,2.667-2.067c1.534-1.034,3.4-3.234,4.868-8.436-.667,1-1.7,2.467-5.5,5.868-.233.2-.467.433-.7.667a24.933,24.933,0,0,0-3.768,4.735C9,9.978,7.3,5.076,5.568.175H0c6.368,16.4,8.469,21.606,8.669,21.873L9,22.481a2.648,2.648,0,0,0,1.634.367,2.666,2.666,0,0,0,1.3-.233,1.78,1.78,0,0,0,.333-.233,7.353,7.353,0,0,0,.533-.567c.3-.433,1.967-3.834,4.134-8.6M14.1,6.377c-.2.634-.333,1.134-.433,1.5a20.616,20.616,0,0,1,3.568-4.768A19.692,19.692,0,0,1,21.106.175H17.9a3.366,3.366,0,0,0-.967.233C15.9.875,15.4,2.009,14.1,6.377" transform="translate(0 -0.117)" fill="#fff"/><path d="M29.1,29.933V26.266a.967.967,0,1,1,1.934,0v1.767h87.658a2.724,2.724,0,0,0,1.867-.634,3.37,3.37,0,0,0,.633-2.434v-.033c-.1-2.634-.033-5,0-7.769.067-3.1.133-6.635,0-11.437a3.98,3.98,0,0,0-1.267-2.8,4.07,4.07,0,0,0-2.667-1c-2.4.033-5.3,0-7.869,0s-4.768-.033-5.468,0a.94.94,0,0,1-1-.9.94.94,0,0,1,.9-1c.734-.033,2.867-.033,5.6,0,2.534,0,5.435.033,7.836,0a6,6,0,0,1,3.968,1.5,5.886,5.886,0,0,1,1.9,4.168c.133,4.835.067,8.4,0,11.537-.033,2.734-.1,5.068,0,7.669v.033a4.983,4.983,0,0,1-1.2,3.868,4.549,4.549,0,0,1-3.2,1.2h-.033Z" transform="translate(-19.397 0)" fill="#fcc00d"/></g></svg>